<?xml version="1.0" encoding="utf-8"?>
<!-- Generator: Adobe Illustrator 19.1.0, SVG Export Plug-In . SVG Version: 6.00 Build 0)  -->
<svg version="1.1" id="Layer_1" xmlns="http://www.w3.org/2000/svg" xmlns:xlink="http://www.w3.org/1999/xlink" x="0px" y="0px"
	 viewBox="0 0 175.1 13.6" style="enable-background:new 0 0 175.1 13.6;" xml:space="preserve">
<style type="text/css">
	.st0{fill:#4F2984;}
	.st1{fill:#474C55;}
</style>
<g>
	<g>
		<polygon class="st0" points="0.3,1.2 0.3,1.5 1.2,2.5 1.2,9.5 0,9.8 0,10.2 3.3,10.2 3.3,9.8 2.3,9.5 2,9.2 2,3.4 7.8,10.3 
			8.3,10.3 8.3,2 9.5,1.7 9.5,1.2 6.1,1.2 6.1,1.7 7.2,2 7.5,2.3 7.5,7.8 7.5,7.8 7.4,7.8 1.8,1.2 		"/>
		<path class="st0" d="M12.7,10.4c-1.6,0-3.2-1-3.2-3.3c0-2.2,1.7-3.3,3.2-3.3c1.6,0,3.2,1,3.2,3.2C15.9,9.1,14.2,10.4,12.7,10.4z
			 M14.6,7.2c0-1.5-0.8-2.8-2.1-2.8c-1.2,0-1.8,1-1.8,2.5c0,1.5,0.7,2.8,2.1,2.8C14,9.7,14.6,8.7,14.6,7.2z"/>
		<path class="st0" d="M32.3,6.5c0-1.5-0.9-1.8-1.8-1.8c-0.8,0-1.4,0.6-1.4,0.6v1v2.9l0.3,0.3l0.9,0.3l0,0.3H27V9.9l0.9-0.3l0-6.5
			c0-1.2-0.3-1.5-1-1.5V1.2l2-0.7h0.1c0,0-0.1,1.4-0.1,2.4v1.9c0,0,1.3-1,2.2-1c1.1,0,2.1,0.5,2.1,2.1l0,3.4l0.3,0.3l0.9,0.3l0,0.3
			h-3.2V9.9l0.9-0.3L32.3,6.5z"/>
		<path class="st0" d="M45.1,6.7c0,1.9,1.1,2.7,2.3,2.7c0.8,0,1.7-0.3,1.7-0.3l0.1,0.3c-0.3,0.3-1.2,1-2.4,1c-1.5,0-2.9-1.2-2.9-3.3
			c0-1.9,1.3-3.3,3-3.3c1.3,0,2.3,0.8,2.3,2.2c0,0.4-0.1,0.7-0.1,0.7H45.1z M47.1,6.2c0.7,0,0.9-0.1,0.9-0.8c0-0.6-0.4-1-1.3-1
			c-0.9,0-1.6,0.8-1.6,1.9L47.1,6.2z"/>
		<path class="st0" d="M50.6,10.1c-0.1,0-0.3-0.2-0.4-0.5l-0.1-1.3h0.6c0.2,0.9,0.8,1.5,1.5,1.5c0.8,0,1.1-0.4,1.1-1
			c0-0.5-0.4-0.8-0.9-1.1l-0.7-0.4c-1-0.5-1.5-0.9-1.5-1.9c0-1.2,0.9-1.8,2.3-1.8c1,0,1.7,0.4,1.7,0.4l-0.2,1.6h-0.6
			c0-1-0.4-1.4-1.2-1.4c-0.6,0-1.1,0.2-1.1,0.8c0,0.4,0.2,0.6,1.2,1.2l0.6,0.3c1.1,0.6,1.4,1,1.4,2c0,1.1-1.1,1.8-2.2,1.8
			C51.7,10.4,51,10.3,50.6,10.1z"/>
		<path class="st0" d="M61.3,6.7c0,1.9,1.1,2.7,2.3,2.7c0.8,0,1.7-0.3,1.7-0.3l0.1,0.3c-0.3,0.3-1.2,1-2.4,1c-1.5,0-2.9-1.2-2.9-3.3
			c0-1.9,1.3-3.3,3-3.3c1.3,0,2.3,0.8,2.3,2.2c0,0.4-0.1,0.7-0.1,0.7H61.3z M63.3,6.2c0.7,0,0.9-0.1,0.9-0.8c0-0.6-0.4-1-1.3-1
			c-0.9,0-1.6,0.8-1.6,1.9L63.3,6.2z"/>
		<path class="st0" d="M78,9.6l-0.3-0.3l0-3.4c0-1.6-1-2-2.1-2c-0.9,0-2.2,1-2.2,1c0-0.6,0-1.1,0-1.1h-0.1l-2,0.7v0.3
			c0.8,0,1,0.7,1,1.9v2.9l-0.9,0.3v0.4h3.1l0-0.3l-0.9-0.3l-0.3-0.3l0-3.9c0,0,0.5-0.6,1.3-0.6c0.9,0,1.8,0.3,1.8,1.8l0,3l-0.9,0.3
			v0.4h3.1l0-0.3L78,9.6z"/>
		<path class="st0" d="M40.4,10.3l-1.5-4l-1.7,4h-0.6l-1.6-5c-0.2-0.6-0.4-1-0.8-1V3.9h2.7v0.4l-0.8,0.3l1.2,4.1l1.1-2.6l0.2-0.7
			l-0.4-1.1l-0.5-0.1V3.9h2.6v0.4l-0.8,0.2L41,8.7l1.4-4.1l-0.9-0.3V3.9h2.4v0.4c-0.6,0.1-0.8,0.2-1.3,1.3L41,10.3H40.4z"/>
		<path class="st0" d="M26.3,9.3c0,0-0.4,0.2-1,0.2c-0.6,0-1.2-0.3-1.2-1.2l0.1-3.6h2l0,0h0l0-0.2h0l0.1-1.1l-0.3,0L26,3.8l-0.1,0.1
			L24.2,4l0,0l0,0V2.4l-0.8,0.1L23.1,4L22,4.1v0.5c0.6,0,1.1,0.1,1.1,0.6c0,0.6-0.1,2.4-0.1,3.1c0,1.4,0.5,1.9,1.4,1.9
			c0.8,0,1.4-0.3,2-0.8L26.3,9.3z"/>
		<path class="st0" d="M59.5,9.3c0,0-0.4,0.2-0.9,0.2c-0.6,0-1.2-0.3-1.2-1.2l0.1-3.6h2v0h0l0-0.2h0l0.1-1.1l-0.3,0l-0.2,0.4
			l-0.1,0.1L57.5,4v0l0,0V2.4l-0.8,0.1L56.3,4l-1.1,0.1v0.5c0.6,0,1.1,0.1,1.1,0.6c0,0.6-0.1,2.4-0.1,3.1c0,1.4,0.5,1.9,1.4,1.9
			c0.8,0,1.4-0.3,2-0.8L59.5,9.3z"/>
		<path class="st0" d="M21.2,3.8L21.2,3.8L21.2,3.8c0,0-0.2-0.1-0.7-0.1c-0.9,0-1.9,1.5-1.9,1.5c0-0.8,0-1.5,0-1.5h-0.1l-1.9,0.7
			v0.3c0.7,0,1,0.7,1,1.8v3l-0.9,0.3v0.4h3.1l0-0.3l-0.9-0.3l-0.3-0.3V6.3c0-0.9,0.7-1.4,1.5-1.4c0.2,0,0.3,0,0.5,0.1l0.2,0.3l0.3,0
			L21.2,3.8L21.2,3.8L21.2,3.8z"/>
		<path class="st0" d="M70.9,3.8L70.9,3.8L70.9,3.8c0,0-0.2-0.1-0.7-0.1c-1,0-1.9,1.5-1.9,1.5c0-0.8,0-1.5,0-1.5h-0.1l-1.9,0.7v0.3
			c0.7,0,1,0.7,1,1.8v3l-0.9,0.3v0.4h3.1l0-0.3l-0.9-0.3l-0.3-0.3V6.3c0-0.9,0.7-1.4,1.5-1.4c0.2,0,0.3,0,0.5,0.1l0.2,0.3l0.3,0
			L70.9,3.8L70.9,3.8L70.9,3.8z"/>
	</g>
	<g>
		<path class="st1" d="M82.3,13.6V0h0.5v13.6H82.3z"/>
	</g>
</g>
<g>
	<path class="st1" d="M90.7,9.6c-0.4,0.4-1.1,0.7-1.8,0.7c-0.7,0-1.3-0.2-1.8-0.7c-0.7-0.7-0.9-1.7-0.9-2.8c0-1.1,0.1-2.1,0.9-2.8
		c0.5-0.5,1.2-0.7,1.8-0.7c0.7,0,1.4,0.3,1.8,0.7c0.4,0.4,0.6,0.9,0.7,1.5h-0.9c0-0.4-0.2-0.7-0.4-0.9c-0.3-0.3-0.7-0.5-1.2-0.5
		c-0.5,0-0.9,0.2-1.2,0.5c-0.6,0.6-0.6,1.5-0.6,2.2c0,0.7,0,1.6,0.6,2.2c0.3,0.3,0.8,0.5,1.2,0.5c0.5,0,1-0.2,1.2-0.5
		c0.2-0.2,0.4-0.6,0.4-1h0.9C91.4,8.7,91.1,9.2,90.7,9.6z"/>
	<path class="st1" d="M96.8,9.6c-0.5,0.5-1.1,0.7-1.8,0.7c-0.7,0-1.3-0.2-1.8-0.7c-0.7-0.7-0.9-1.7-0.9-2.8c0-1.1,0.1-2.1,0.9-2.8
		c0.5-0.5,1.1-0.7,1.8-0.7c0.7,0,1.3,0.2,1.8,0.7c0.7,0.7,0.9,1.7,0.9,2.8C97.7,7.9,97.5,8.9,96.8,9.6z M96.2,4.6
		c-0.3-0.3-0.8-0.5-1.2-0.5c-0.5,0-0.9,0.2-1.2,0.5c-0.6,0.6-0.6,1.5-0.6,2.2c0,0.7,0,1.6,0.6,2.2c0.3,0.3,0.8,0.5,1.2,0.5
		c0.5,0,0.9-0.2,1.2-0.5c0.6-0.6,0.6-1.5,0.6-2.2C96.8,6.1,96.8,5.2,96.2,4.6z"/>
	<path class="st1" d="M103.3,9.5c-0.5,0.5-1.1,0.7-1.8,0.7h-2.4V3.4h2.4c0.7,0,1.3,0.2,1.8,0.7c0.7,0.7,0.9,1.7,0.9,2.7
		C104.1,7.8,104,8.8,103.3,9.5z M102.7,4.7c-0.3-0.3-0.8-0.5-1.2-0.5H100v5.2h1.5c0.4,0,0.9-0.2,1.2-0.5c0.5-0.5,0.6-1.4,0.6-2.1
		S103.2,5.2,102.7,4.7z"/>
	<path class="st1" d="M105.6,10.2V3.4h0.9v6.8H105.6z"/>
	<path class="st1" d="M112.5,10.2l-3.3-5.4v5.4h-0.8V3.4h1l3.3,5.5V3.4h0.8v6.8H112.5z"/>
	<path class="st1" d="M119.6,10.2l-0.1-0.8c-0.3,0.6-1.1,0.9-1.8,0.9c-0.7,0-1.3-0.2-1.8-0.7c-0.7-0.7-0.9-1.6-0.9-2.8
		c0-1.1,0.1-2.1,0.9-2.8c0.5-0.5,1.1-0.7,1.8-0.7c0.8,0,1.5,0.3,1.9,0.8c0.3,0.3,0.6,0.8,0.6,1.3h-0.9c0-0.3-0.1-0.5-0.3-0.7
		c-0.3-0.4-0.8-0.5-1.3-0.5c-0.5,0-0.9,0.2-1.2,0.5c-0.6,0.6-0.6,1.5-0.6,2.2c0,0.7,0,1.7,0.6,2.2c0.3,0.3,0.8,0.5,1.2,0.5
		c0.5,0,0.9-0.2,1.2-0.5c0.4-0.4,0.6-1.1,0.6-1.7h-1.8V6.6h2.6v3.6H119.6z"/>
	<path class="st1" d="M128.5,9.6c-0.4,0.4-1,0.6-1.7,0.6h-2.7V3.4h2.7c0.6,0,1.3,0.2,1.7,0.6c0.3,0.3,0.4,0.6,0.4,1.1
		c0,0.6-0.3,1.3-1,1.5c0.7,0.2,1.1,0.9,1.1,1.6C129,8.9,128.8,9.3,128.5,9.6z M126.8,4.2h-1.9v2.1h1.9c0.7,0,1.2-0.3,1.2-1.1
		C128,4.5,127.4,4.2,126.8,4.2z M126.8,7.1h-1.9v2.4h1.9c0.7,0,1.3-0.4,1.3-1.2C128.1,7.5,127.5,7.1,126.8,7.1z"/>
	<path class="st1" d="M134.5,9.6c-0.5,0.5-1.1,0.7-1.8,0.7c-0.7,0-1.3-0.2-1.8-0.7c-0.7-0.7-0.9-1.7-0.9-2.8c0-1.1,0.1-2.1,0.9-2.8
		c0.5-0.5,1.1-0.7,1.8-0.7c0.7,0,1.3,0.2,1.8,0.7c0.7,0.7,0.9,1.7,0.9,2.8C135.4,7.9,135.2,8.9,134.5,9.6z M133.9,4.6
		c-0.3-0.3-0.8-0.5-1.2-0.5c-0.5,0-0.9,0.2-1.2,0.5c-0.6,0.6-0.6,1.5-0.6,2.2c0,0.7,0,1.6,0.6,2.2c0.3,0.3,0.8,0.5,1.2,0.5
		c0.5,0,0.9-0.2,1.2-0.5c0.6-0.6,0.6-1.5,0.6-2.2C134.5,6.1,134.5,5.2,133.9,4.6z"/>
	<path class="st1" d="M140.9,9.6c-0.5,0.5-1.1,0.7-1.8,0.7c-0.7,0-1.3-0.2-1.8-0.7c-0.7-0.7-0.9-1.7-0.9-2.8c0-1.1,0.1-2.1,0.9-2.8
		c0.5-0.5,1.1-0.7,1.8-0.7c0.7,0,1.3,0.2,1.8,0.7c0.7,0.7,0.9,1.7,0.9,2.8C141.8,7.9,141.6,8.9,140.9,9.6z M140.3,4.6
		c-0.3-0.3-0.8-0.5-1.2-0.5c-0.5,0-0.9,0.2-1.2,0.5c-0.6,0.6-0.6,1.5-0.6,2.2c0,0.7,0,1.6,0.6,2.2c0.3,0.3,0.8,0.5,1.2,0.5
		c0.5,0,0.9-0.2,1.2-0.5c0.6-0.6,0.6-1.5,0.6-2.2C140.9,6.1,140.9,5.2,140.3,4.6z"/>
	<path class="st1" d="M145,4.2v6h-0.9v-6h-2V3.4h4.9v0.8H145z"/>
	<path class="st1" d="M154.1,9.6c-0.4,0.4-1.1,0.7-1.8,0.7c-0.7,0-1.3-0.2-1.8-0.7c-0.7-0.7-0.9-1.7-0.9-2.8c0-1.1,0.1-2.1,0.9-2.8
		c0.5-0.5,1.2-0.7,1.8-0.7c0.7,0,1.4,0.3,1.8,0.7c0.4,0.4,0.6,0.9,0.7,1.5h-0.9c0-0.4-0.2-0.7-0.4-0.9c-0.3-0.3-0.7-0.5-1.2-0.5
		c-0.5,0-0.9,0.2-1.2,0.5c-0.6,0.6-0.6,1.5-0.6,2.2c0,0.7,0,1.6,0.6,2.2c0.3,0.3,0.8,0.5,1.2,0.5c0.5,0,1-0.2,1.2-0.5
		c0.2-0.2,0.4-0.6,0.4-1h0.9C154.8,8.7,154.5,9.2,154.1,9.6z"/>
	<path class="st1" d="M160,10.2l-0.6-1.6h-2.9l-0.5,1.6h-0.9l2.4-6.8h1l2.4,6.8H160z M158,4.3l-1.2,3.5h2.4L158,4.3z"/>
	<path class="st1" d="M167.6,10.2V4.5l-2.1,5.6h-0.7l-2.1-5.7v5.8h-0.8V3.4h1.2l2,5.5l2-5.5h1.2v6.8H167.6z"/>
	<path class="st1" d="M174.5,7c-0.4,0.4-0.9,0.6-1.7,0.6h-1.7v2.6h-0.9V3.4h2.5c0.8,0,1.4,0.2,1.7,0.6c0.3,0.4,0.5,0.8,0.5,1.4
		C175.1,6.1,174.9,6.7,174.5,7z M172.8,4.2h-1.6v2.6h1.7c0.9,0,1.4-0.4,1.4-1.3C174.2,4.6,173.7,4.2,172.8,4.2z"/>
</g>
</svg>
